<?xml version="1.0" encoding="UTF-8"?>
<svg width="800px" height="800px" viewBox="0 0 800 800" version="1.1" xmlns="http://www.w3.org/2000/svg" xmlns:xlink="http://www.w3.org/1999/xlink">
    <title>WSHorse</title>
    <g id="Page-1" stroke="none" stroke-width="1" fill="none" fill-rule="evenodd">
        <g id="WSHorse">
            <rect id="Rectangle" stroke="#F0F50D" fill="none" x="0.5" y="0.5" width="799" height="799"></rect>
            <g id="horse-black-running-shape-svgrepo-com" transform="translate(114.000000, 161.000000)" fill="#000000" fill-rule="nonzero">
                <path d="M554.083,429.703 C541.274,415.907 561.146,423.426 529.459,388.05 C527.23,385.562 523.53,381.589 521.349,379.06 C490.678,343.442 522.845,347.313 485.406,325.142 C448.399,303.225 472.001,294.737 445.432,270.632 C442.955,268.386 441.14,264.013 441.223,260.673 C441.494,250.436 440.313,228.601 428.006,206.232 C411.096,175.479 425.955,146.261 428.006,144.725 C430.058,143.188 464.907,172.405 462.857,194.958 C460.811,217.507 491.252,206.747 496.27,197.009 C501.294,187.268 512.058,182.657 504.888,166.255 C497.712,149.853 485.406,118.076 492.587,96.038 C498.941,76.524 492.836,81.524 483.881,71.181 C481.699,68.651 481.197,63.76 482.22,60.583 C485.518,50.354 491.813,28.759 491.057,15.061 C490.153,-1.149 486.884,24.563 474.282,31.402 C471.35,33.001 467.609,30.391 465.659,27.681 C462.804,23.723 457.436,18.8 447.997,17.621 C440.077,16.628 435.862,13.85 433.622,11.234 C431.441,8.698 430.963,8.553 431.323,11.879 C431.47,13.295 431.713,14.796 432.097,16.182 C432.972,19.407 435.743,22.252 432.446,21.721 C429.042,21.168 423.415,20.267 415.062,19.304 C411.741,18.926 410.972,20.486 412.485,23.324 C413.413,25.067 414.063,27.065 413.656,28.907 C412.634,33.517 391.1,24.294 384.445,14.041 C380.395,7.817 373.333,3.298 368.403,0.7 C365.454,-0.854 363.81,0.73 364.342,4.028 C364.962,7.811 365.098,12.569 362.923,15.572 C359.276,20.569 350.41,8.641 337.726,14.809 C334.717,16.272 335.356,18.678 338.447,19.96 C342.2,21.521 346.651,24.189 348.058,28.383 C350.498,35.721 309.088,11.327 298.159,49.138 C297.231,52.353 298.792,53.181 301.629,51.396 C306.896,48.068 315.206,44.858 319.87,53.497 C326.041,64.952 309.85,79.824 298.023,77.247 C294.754,76.538 293.035,77.2 293.655,80.486 C294.524,85.078 296.013,91.385 298.277,95.895 C299.773,98.886 299.938,102.521 297.03,104.182 C292.154,106.966 283.811,110.004 272.87,107.533 C269.607,106.8 268.541,108.065 270.586,110.704 C273.639,114.646 278.347,119.96 283.424,122.797 C286.341,124.432 288.256,127.337 286.519,130.189 C284.595,133.348 281.536,136.993 277.147,138.494 C273.988,139.57 273.56,140.43 276.743,141.458 C278.741,142.105 281.132,142.664 283.643,142.797 C286.983,142.971 287.789,144.177 285.012,146.036 C281.264,148.548 275.442,151.202 268.317,150.315 C265.001,149.902 259.959,147.803 256.909,146.429 C236.523,137.217 189.603,114.162 150.226,140.107 C141.061,146.142 131.746,152.608 123.329,159.684 C120.767,161.832 116.076,163.278 112.743,163.074 C96.69,162.087 68.66,164.992 49.427,192.56 C26.874,224.894 11.675,229.139 3.299,226.432 C0.122,225.404 -0.818,225.832 0.737,228.793 C4.266,235.54 11.507,246.886 22.758,253.234 C25.669,254.877 26.287,257.832 23.133,258.955 C22.71,259.103 22.255,259.239 21.8,259.334 C18.534,260.037 17.376,260.812 19.276,263.561 C23.231,269.247 30.033,278.155 36.098,281.749 C45.322,287.216 25.506,289.267 40.88,304.641 C53.789,317.55 67.661,326.126 70.162,336.228 C70.966,339.474 72.627,340.863 75.192,338.717 C84.259,331.156 100.777,311.255 79.15,277.653 C59.931,247.781 73.81,229.056 87,225.822 C90.242,225.024 93.522,228.124 94.498,231.319 C98.113,243.141 105.557,256.103 117.988,270.406 C120.181,272.93 124.489,276.063 127.43,277.653 C135.433,281.974 150.056,290.994 155.347,301.568 C159.922,310.713 167.789,315.393 173.165,317.639 C176.25,318.933 178.115,322.09 177.051,325.258 C174.194,333.681 168.608,348.812 164.062,352.814 C157.652,358.447 171.495,374.341 175.591,381.771 C179.696,389.201 209.673,438.148 213.269,450.709 C216.851,463.27 235.308,473.778 251.195,460.704 C267.084,447.629 241.715,452.5 233.513,437.38 C225.634,422.863 193.175,401.721 207.414,356.474 C208.419,353.287 211.513,352.496 213.898,354.83 C218.813,359.647 226.084,367.946 226.591,375.364 C227.36,386.642 241.962,386.896 248.633,394.332 C254.408,400.769 284.647,414.34 294.601,426.02 C296.758,428.561 298.295,433.922 300.275,436.612 C308.018,447.192 328.481,457.347 332.2,467.874 C336.195,479.218 344.352,483.804 363.468,472.402 C366.34,470.688 369.952,466.403 368.249,463.53 C366.854,461.189 363.911,458.056 358.06,454.031 C342.425,443.274 336.787,445.579 329.617,434.555 C322.435,423.532 319.368,429.945 305.271,416.362 C293.851,405.35 282.088,398.553 277.493,390.774 C275.793,387.895 273.692,383.108 271.585,380.513 C269.613,378.072 267.293,374.975 265.642,372.013 C264.008,369.099 262.893,363.543 260.316,361.415 C256.019,357.856 248.628,355.587 246.068,353.577 C243.521,351.573 233.854,339.225 228.472,332.239 C226.433,329.592 225.866,324.945 226.965,321.789 C228.304,317.947 229.787,312.869 229.926,308.986 C230.18,301.816 242.48,326.672 308.084,317.959 C308.084,317.959 323.464,314.631 330.385,326.411 C337.307,338.203 344.477,328.202 357.291,328.202 C370.105,328.202 389.581,323.338 394.966,329.739 C400.351,336.152 418.798,350.243 399.582,379.206 C380.36,408.157 355.5,372.799 375.998,421.231 C375.998,421.231 383.942,440.193 400.085,420.977 C416.233,401.761 406.492,404.834 422.126,397.66 C437.76,390.478 429.822,385.613 429.054,376.894 C428.28,368.182 423.409,348.453 425.72,338.971 C428.026,329.49 430.33,323.597 427.003,320.009 C424.083,316.864 437.653,330.016 450.87,336.441 C453.873,337.902 459.068,339.521 462.095,340.939 C474.809,346.88 490.165,360.043 500.592,378.946 C502.217,381.866 504.523,386.79 505.946,389.816 C515.888,411.011 520.315,421.591 523.862,422.774 C527.71,424.056 530.529,430.21 525.913,438.662 C521.568,446.631 538.131,477.768 567.04,467.04 C570.173,465.876 571.863,461.934 570.758,458.771 C568.245,451.655 562.996,439.301 554.083,429.703 Z" id="Path"></path>
            </g>
        </g>
    </g>
</svg>
